<?xml version="1.0" encoding="UTF-8"?>
<svg xmlns="http://www.w3.org/2000/svg" xmlns:xlink="http://www.w3.org/1999/xlink" width="512pt" height="512pt" viewBox="0 0 512 512" version="1.1">
<g id="surface1">
<path style=" stroke:none;fill-rule:nonzero;fill:rgb(94.117647%,94.117647%,94.117647%);fill-opacity:1;" d="M 512 256 C 512 397.386719 397.386719 512 256 512 C 114.613281 512 0 397.386719 0 256 C 0 114.613281 114.613281 0 256 0 C 397.386719 0 512 114.613281 512 256 Z M 512 256 "/>
<path style=" stroke:none;fill-rule:nonzero;fill:rgb(0%,32.156863%,70.588235%);fill-opacity:1;" d="M 52.921875 100.140625 C 32.8125 126.304688 17.648438 156.460938 8.820312 189.21875 L 141.996094 189.21875 Z M 52.921875 100.140625 "/>
<path style=" stroke:none;fill-rule:nonzero;fill:rgb(0%,32.156863%,70.588235%);fill-opacity:1;" d="M 503.179688 189.21875 C 494.351562 156.460938 479.1875 126.304688 459.078125 100.144531 L 370.003906 189.21875 Z M 503.179688 189.21875 "/>
<path style=" stroke:none;fill-rule:nonzero;fill:rgb(0%,32.156863%,70.588235%);fill-opacity:1;" d="M 8.820312 322.785156 C 17.648438 355.542969 32.8125 385.695312 52.921875 411.859375 L 141.992188 322.785156 Z M 8.820312 322.785156 "/>
<path style=" stroke:none;fill-rule:nonzero;fill:rgb(0%,32.156863%,70.588235%);fill-opacity:1;" d="M 411.859375 52.921875 C 385.695312 32.8125 355.539062 17.648438 322.78125 8.820312 L 322.78125 141.996094 Z M 411.859375 52.921875 "/>
<path style=" stroke:none;fill-rule:nonzero;fill:rgb(0%,32.156863%,70.588235%);fill-opacity:1;" d="M 100.140625 459.078125 C 126.304688 479.1875 156.460938 494.351562 189.21875 503.179688 L 189.21875 370.003906 Z M 100.140625 459.078125 "/>
<path style=" stroke:none;fill-rule:nonzero;fill:rgb(0%,32.156863%,70.588235%);fill-opacity:1;" d="M 189.21875 8.820312 C 156.460938 17.648438 126.304688 32.8125 100.140625 52.921875 L 189.21875 141.996094 Z M 189.21875 8.820312 "/>
<path style=" stroke:none;fill-rule:nonzero;fill:rgb(0%,32.156863%,70.588235%);fill-opacity:1;" d="M 322.78125 503.179688 C 355.539062 494.351562 385.695312 479.1875 411.859375 459.078125 L 322.78125 370.003906 Z M 322.78125 503.179688 "/>
<path style=" stroke:none;fill-rule:nonzero;fill:rgb(0%,32.156863%,70.588235%);fill-opacity:1;" d="M 370.003906 322.785156 L 459.078125 411.859375 C 479.1875 385.699219 494.351562 355.542969 503.179688 322.785156 Z M 370.003906 322.785156 "/>
<path style=" stroke:none;fill-rule:nonzero;fill:rgb(84.705882%,0%,15.294118%);fill-opacity:1;" d="M 509.832031 222.609375 L 289.390625 222.609375 L 289.390625 2.167969 C 278.460938 0.742188 267.316406 0 256 0 C 244.679688 0 233.539062 0.742188 222.609375 2.167969 L 222.609375 222.609375 L 2.167969 222.609375 C 0.742188 233.539062 0 244.683594 0 256 C 0 267.320312 0.742188 278.460938 2.167969 289.390625 L 222.609375 289.390625 L 222.609375 509.832031 C 233.539062 511.257812 244.679688 512 256 512 C 267.316406 512 278.460938 511.257812 289.390625 509.832031 L 289.390625 289.390625 L 509.832031 289.390625 C 511.257812 278.460938 512 267.320312 512 256 C 512 244.683594 511.257812 233.539062 509.832031 222.609375 Z M 509.832031 222.609375 "/>
<path style=" stroke:none;fill-rule:nonzero;fill:rgb(84.705882%,0%,15.294118%);fill-opacity:1;" d="M 322.78125 322.785156 L 437.019531 437.019531 C 442.273438 431.769531 447.285156 426.277344 452.066406 420.585938 L 354.265625 322.78125 L 322.78125 322.78125 Z M 322.78125 322.785156 "/>
<path style=" stroke:none;fill-rule:nonzero;fill:rgb(84.705882%,0%,15.294118%);fill-opacity:1;" d="M 189.21875 322.785156 L 189.214844 322.785156 L 74.980469 437.019531 C 80.230469 442.273438 85.722656 447.285156 91.414062 452.066406 L 189.21875 354.261719 Z M 189.21875 322.785156 "/>
<path style=" stroke:none;fill-rule:nonzero;fill:rgb(84.705882%,0%,15.294118%);fill-opacity:1;" d="M 189.21875 189.21875 L 74.980469 74.980469 C 69.726562 80.230469 64.714844 85.722656 59.933594 91.414062 L 157.734375 189.21875 Z M 189.21875 189.21875 "/>
<path style=" stroke:none;fill-rule:nonzero;fill:rgb(84.705882%,0%,15.294118%);fill-opacity:1;" d="M 322.78125 189.21875 L 437.019531 74.980469 C 431.769531 69.726562 426.277344 64.714844 420.585938 59.933594 L 322.78125 157.738281 Z M 322.78125 189.21875 "/>
</g>
</svg>
