<?xml version="1.0" encoding="UTF-8"?>
<svg xmlns="http://www.w3.org/2000/svg" xmlns:xlink="http://www.w3.org/1999/xlink" width="512pt" height="512pt" viewBox="0 0 512 512" version="1.1">
<g id="surface1">
<path style=" stroke:none;fill-rule:nonzero;fill:rgb(94.117647%,94.117647%,94.117647%);fill-opacity:1;" d="M 15.921875 166.957031 C 5.632812 194.691406 0 224.6875 0 256 C 0 287.3125 5.632812 317.3125 15.921875 345.042969 L 256 367.304688 L 496.078125 345.042969 C 506.367188 317.3125 512 287.3125 512 256 C 512 224.6875 506.367188 194.691406 496.078125 166.957031 L 256 144.695312 Z M 15.921875 166.957031 "/>
<path style=" stroke:none;fill-rule:nonzero;fill:rgb(84.705882%,0%,15.294118%);fill-opacity:1;" d="M 256 0 C 145.929688 0 52.09375 69.472656 15.925781 166.957031 L 496.078125 166.957031 C 459.90625 69.472656 366.070312 0 256 0 Z M 256 0 "/>
<path style=" stroke:none;fill-rule:nonzero;fill:rgb(42.745098%,64.705882%,26.666667%);fill-opacity:1;" d="M 256 512 C 366.070312 512 459.90625 442.527344 496.078125 345.042969 L 15.925781 345.042969 C 52.09375 442.527344 145.929688 512 256 512 Z M 256 512 "/>
</g>
</svg>
